<svg width="1200" height="630" viewBox="0 0 1200 630" fill="none" xmlns="http://www.w3.org/2000/svg">
  <rect width="1200" height="630" fill="#0f172a"/>
  <defs>
    <pattern id="grid" width="40" height="40" patternUnits="userSpaceOnUse">
      <path d="M 40 0 L 0 0 0 40" fill="none" stroke="#1e293b" stroke-width="1"/>
    </pattern>
  </defs>
  <rect width="1200" height="630" fill="url(#grid)" opacity="0.5"/>
  <defs>
    <linearGradient id="grad1" x1="0%" y1="0%" x2="100%" y2="100%">
      <stop offset="0%" style="stop-color:#3b82f6;stop-opacity:0.1" />
      <stop offset="100%" style="stop-color:#10b981;stop-opacity:0.1" />
    </linearGradient>
  </defs>
  <rect width="1200" height="630" fill="url(#grad1)"/>
  
  <!-- Lock Icon -->
  <path d="M300 150 C300 100 340 60 390 60 C440 60 480 100 480 150 L480 200 L300 200 Z" stroke="#3b82f6" stroke-width="12" fill="none"/>
  <rect x="260" y="200" width="260" height="180" rx="20" fill="#3b82f6" opacity="0.8"/>
  <circle cx="390" cy="290" r="30" fill="#0f172a"/>
  <rect x="380" y="290" width="20" height="50" fill="#0f172a"/>
  
  <!-- AI Sparkles -->
  <path d="M550 100 L560 130 L590 140 L560 150 L550 180 L540 150 L510 140 L540 130 Z" fill="#10b981"/>
  <path d="M200 250 L205 265 L220 270 L205 275 L200 290 L195 275 L180 270 L195 265 Z" fill="#10b981"/>

  <text x="80" y="480" font-family="Arial, sans-serif" font-size="64" font-weight="bold" fill="white">AI-Driven Authentication</text>
  <text x="80" y="550" font-family="Arial, sans-serif" font-size="40" fill="#94a3b8">Best Practices & Security Patterns</text>
  
  <text x="1000" y="580" font-family="Arial, sans-serif" font-size="24" fill="#64748b">by Ian Lintner</text>
</svg>