<svg width="1200" height="630" viewBox="0 0 1200 630" fill="none" xmlns="http://www.w3.org/2000/svg">
  <defs>
    <pattern id="grid" width="40" height="40" patternUnits="userSpaceOnUse">
      <path d="M 40 0 L 0 0 0 40" stroke="#1e293b" stroke-width="1" fill="none" />
    </pattern>
    <linearGradient id="overlay" x1="0" y1="0" x2="1200" y2="630" gradientUnits="userSpaceOnUse">
      <stop offset="0" stop-color="#8b5cf6" stop-opacity="0.15" />
      <stop offset="1" stop-color="#3b82f6" stop-opacity="0.15" />
    </linearGradient>
    <linearGradient id="lane" x1="0" y1="0" x2="1" y2="1">
      <stop offset="0" stop-color="#0ea5e9" />
      <stop offset="1" stop-color="#8b5cf6" />
    </linearGradient>
    <filter id="shadow" x="-20%" y="-20%" width="140%" height="140%">
      <feDropShadow dx="0" dy="10" stdDeviation="18" flood-color="#020617" flood-opacity="0.35" />
    </filter>
  </defs>

  <rect width="1200" height="630" fill="#0f172a" />
  <rect width="1200" height="630" fill="url(#grid)" />
  <rect width="1200" height="630" fill="url(#overlay)" />

  <g opacity="0.9">
    <circle cx="1030" cy="140" r="96" fill="#3b82f6" fill-opacity="0.08" />
    <circle cx="1100" cy="210" r="132" fill="#8b5cf6" fill-opacity="0.1" />
    <circle cx="960" cy="540" r="150" fill="#0ea5e9" fill-opacity="0.08" />
  </g>

  <g filter="url(#shadow)">
    <rect x="80" y="118" width="430" height="170" rx="28" fill="#111827" stroke="#334155" stroke-width="2" />
    <text x="112" y="172" font-family="Arial, sans-serif" font-size="28" font-weight="700" fill="#e2e8f0">Composable Blocks</text>
    <rect x="112" y="196" width="110" height="44" rx="12" fill="#1d4ed8" />
    <rect x="236" y="196" width="126" height="44" rx="12" fill="#7c3aed" />
    <rect x="376" y="196" width="102" height="44" rx="12" fill="#0f766e" />
    <text x="131" y="224" font-family="Arial, sans-serif" font-size="18" font-weight="700" fill="white">Tools</text>
    <text x="256" y="224" font-family="Arial, sans-serif" font-size="18" font-weight="700" fill="white">Policies</text>
    <text x="392" y="224" font-family="Arial, sans-serif" font-size="18" font-weight="700" fill="white">Evals</text>
    <rect x="112" y="250" width="168" height="18" rx="9" fill="#1e293b" />
    <rect x="112" y="250" width="118" height="18" rx="9" fill="#22c55e" />
    <rect x="298" y="250" width="180" height="18" rx="9" fill="#1e293b" />
    <rect x="298" y="250" width="138" height="18" rx="9" fill="#f97316" />
  </g>

  <g filter="url(#shadow)">
    <rect x="565" y="120" width="555" height="220" rx="30" fill="#111827" stroke="#334155" stroke-width="2" />
    <rect x="612" y="168" width="24" height="120" rx="12" fill="#0ea5e9" />
    <rect x="700" y="168" width="24" height="120" rx="12" fill="#8b5cf6" />
    <rect x="788" y="168" width="24" height="120" rx="12" fill="#22c55e" />
    <path d="M636 228H700" stroke="url(#lane)" stroke-width="10" stroke-linecap="round" />
    <path d="M724 228H788" stroke="url(#lane)" stroke-width="10" stroke-linecap="round" />
    <path d="M812 228H876" stroke="url(#lane)" stroke-width="10" stroke-linecap="round" />
    <circle cx="888" cy="228" r="28" fill="#0f172a" stroke="#38bdf8" stroke-width="8" />
    <text x="930" y="205" font-family="Arial, sans-serif" font-size="28" font-weight="700" fill="#f8fafc">Shippable</text>
    <text x="930" y="243" font-family="Arial, sans-serif" font-size="28" font-weight="700" fill="#f8fafc">Observable</text>
    <text x="930" y="281" font-family="Arial, sans-serif" font-size="28" font-weight="700" fill="#f8fafc">Governed</text>
    <text x="612" y="318" font-family="Arial, sans-serif" font-size="24" fill="#94a3b8">Delivery lanes that turn agent output into repeatable systems</text>
  </g>

  <text x="80" y="438" font-family="Arial, sans-serif" font-size="64" font-weight="700" fill="white">Composable Paved Paths</text>
  <text x="80" y="494" font-family="Arial, sans-serif" font-size="40" fill="#94a3b8">for AI Agent Development</text>
  <text x="1000" y="580" font-family="Arial, sans-serif" font-size="24" fill="#64748b">Ian Lintner</text>
</svg>
