<svg width="1200" height="630" viewBox="0 0 1200 630" xmlns="http://www.w3.org/2000/svg">
  <defs>
    <linearGradient id="grad1" x1="0%" y1="0%" x2="100%" y2="100%">
      <stop offset="0%" style="stop-color:#0f172a;stop-opacity:1" />
      <stop offset="100%" style="stop-color:#1e293b;stop-opacity:1" />
    </linearGradient>
    <linearGradient id="k8sBlue" x1="0%" y1="0%" x2="100%" y2="100%">
      <stop offset="0%" style="stop-color:#326ce5;stop-opacity:1" />
      <stop offset="100%" style="stop-color:#4d8def;stop-opacity:1" />
    </linearGradient>
  </defs>
  <rect width="1200" height="630" fill="url(#grad1)"/>
  
  <!-- Kubernetes wheel icon (simplified) -->
  <g transform="translate(600, 100)">
    <circle cx="0" cy="0" r="35" fill="none" stroke="#326ce5" stroke-width="4"/>
    <circle cx="0" cy="0" r="12" fill="#326ce5"/>
    <line x1="0" y1="-35" x2="0" y2="-50" stroke="#326ce5" stroke-width="4" stroke-linecap="round"/>
    <line x1="30" y1="17" x2="43" y2="25" stroke="#326ce5" stroke-width="4" stroke-linecap="round"/>
    <line x1="-30" y1="17" x2="-43" y2="25" stroke="#326ce5" stroke-width="4" stroke-linecap="round"/>
    <line x1="30" y1="-17" x2="43" y2="-25" stroke="#326ce5" stroke-width="4" stroke-linecap="round"/>
    <line x1="-30" y1="-17" x2="-43" y2="-25" stroke="#326ce5" stroke-width="4" stroke-linecap="round"/>
    <line x1="0" y1="35" x2="0" y2="50" stroke="#326ce5" stroke-width="4" stroke-linecap="round"/>
  </g>

  <!-- Title -->
  <text x="600" y="220" font-family="Arial, sans-serif" font-size="48" font-weight="bold" fill="#ffffff" text-anchor="middle">Kubernetes Manifest</text>
  <text x="600" y="280" font-family="Arial, sans-serif" font-size="48" font-weight="bold" fill="#ffffff" text-anchor="middle">Management Strategies</text>
  
  <!-- Comparison icons -->
  <g transform="translate(300, 380)">
    <!-- Centralized icon -->
    <rect x="-60" y="-40" width="120" height="80" rx="8" fill="none" stroke="#22c55e" stroke-width="2"/>
    <rect x="-40" y="-20" width="80" height="15" rx="3" fill="#22c55e" opacity="0.6"/>
    <rect x="-40" y="0" width="80" height="15" rx="3" fill="#22c55e" opacity="0.6"/>
    <rect x="-40" y="20" width="80" height="15" rx="3" fill="#22c55e" opacity="0.6"/>
    <text x="0" y="70" font-family="Arial, sans-serif" font-size="18" fill="#22c55e" text-anchor="middle">Centralized</text>
  </g>
  
  <!-- VS text -->
  <text x="600" y="390" font-family="Arial, sans-serif" font-size="32" font-weight="bold" fill="#64748b" text-anchor="middle">vs</text>
  
  <g transform="translate(900, 380)">
    <!-- Distributed icon -->
    <rect x="-80" y="-35" width="50" height="35" rx="5" fill="none" stroke="#f59e0b" stroke-width="2"/>
    <rect x="-75" y="-25" width="40" height="8" rx="2" fill="#f59e0b" opacity="0.6"/>
    <rect x="-75" y="-12" width="40" height="8" rx="2" fill="#f59e0b" opacity="0.6"/>
    
    <rect x="-25" y="-35" width="50" height="35" rx="5" fill="none" stroke="#f59e0b" stroke-width="2"/>
    <rect x="-20" y="-25" width="40" height="8" rx="2" fill="#f59e0b" opacity="0.6"/>
    <rect x="-20" y="-12" width="40" height="8" rx="2" fill="#f59e0b" opacity="0.6"/>
    
    <rect x="30" y="-35" width="50" height="35" rx="5" fill="none" stroke="#f59e0b" stroke-width="2"/>
    <rect x="35" y="-25" width="40" height="8" rx="2" fill="#f59e0b" opacity="0.6"/>
    <rect x="35" y="-12" width="40" height="8" rx="2" fill="#f59e0b" opacity="0.6"/>
    
    <rect x="-55" y="10" width="50" height="35" rx="5" fill="none" stroke="#f59e0b" stroke-width="2"/>
    <rect x="-50" y="20" width="40" height="8" rx="2" fill="#f59e0b" opacity="0.6"/>
    <rect x="-50" y="33" width="40" height="8" rx="2" fill="#f59e0b" opacity="0.6"/>
    
    <rect x="5" y="10" width="50" height="35" rx="5" fill="none" stroke="#f59e0b" stroke-width="2"/>
    <rect x="10" y="20" width="40" height="8" rx="2" fill="#f59e0b" opacity="0.6"/>
    <rect x="10" y="33" width="40" height="8" rx="2" fill="#f59e0b" opacity="0.6"/>
    
    <text x="0" y="70" font-family="Arial, sans-serif" font-size="18" fill="#f59e0b" text-anchor="middle">Distributed</text>
  </g>
  
  <!-- Subtitle -->
  <text x="600" y="500" font-family="Arial, sans-serif" font-size="22" fill="#94a3b8" text-anchor="middle">Platform Repo • App-Scoped k8s/ • GitOps Patterns</text>
  
  <!-- Author -->
  <text x="600" y="570" font-family="Arial, sans-serif" font-size="20" fill="#64748b" text-anchor="middle">Ian Lintner - Platform Engineering</text>
</svg>
