<?xml version="1.0" encoding="UTF-8"?>
<svg xmlns="http://www.w3.org/2000/svg" width="1200" height="630" viewBox="0 0 1200 630">
  <defs>
    <pattern id="grid" width="40" height="40" patternUnits="userSpaceOnUse">
      <path d="M 40 0 L 0 0 0 40" fill="none" stroke="#1e293b" stroke-width="1" />
    </pattern>

    <linearGradient id="overlay" x1="0" y1="0" x2="1" y2="1">
      <stop offset="0" stop-color="#8b5cf6" stop-opacity="0.18" />
      <stop offset="1" stop-color="#3b82f6" stop-opacity="0.14" />
    </linearGradient>

    <filter id="shadow" x="-20%" y="-20%" width="140%" height="140%">
      <feDropShadow dx="0" dy="8" stdDeviation="12" flood-color="#000000" flood-opacity="0.35" />
    </filter>

    <filter id="glow" x="-50%" y="-50%" width="200%" height="200%">
      <feGaussianBlur stdDeviation="10" result="blur" />
      <feColorMatrix in="blur" type="matrix"
        values="1 0 0 0 0
                0 1 0 0 0
                0 0 1 0 0
                0 0 0 0.35 0" result="glow" />
      <feMerge>
        <feMergeNode in="glow" />
        <feMergeNode in="SourceGraphic" />
      </feMerge>
    </filter>
  </defs>

  <!-- Background -->
  <rect width="1200" height="630" fill="#0f172a" />
  <rect width="1200" height="630" fill="url(#grid)" opacity="0.85" />
  <rect width="1200" height="630" fill="url(#overlay)" />

  <!-- Abstract actor/message graph -->
  <g filter="url(#glow)">
    <!-- Nodes -->
    <circle cx="250" cy="210" r="18" fill="#3b82f6" />
    <circle cx="420" cy="140" r="16" fill="#8b5cf6" />
    <circle cx="520" cy="260" r="18" fill="#10b981" />
    <circle cx="700" cy="170" r="16" fill="#f97316" />
    <circle cx="840" cy="260" r="18" fill="#3b82f6" />
    <circle cx="950" cy="160" r="16" fill="#8b5cf6" />

    <!-- Edges (message passing) -->
    <path d="M 265 200 C 320 160, 360 150, 405 145" fill="none" stroke="#94a3b8" stroke-width="3" opacity="0.75" />
    <path d="M 270 220 C 360 250, 420 270, 505 260" fill="none" stroke="#94a3b8" stroke-width="3" opacity="0.75" />
    <path d="M 535 250 C 600 210, 640 190, 685 175" fill="none" stroke="#94a3b8" stroke-width="3" opacity="0.75" />
    <path d="M 535 270 C 650 300, 720 300, 825 265" fill="none" stroke="#94a3b8" stroke-width="3" opacity="0.75" />
    <path d="M 855 250 C 900 220, 925 195, 940 175" fill="none" stroke="#94a3b8" stroke-width="3" opacity="0.75" />

    <!-- Small “messages” -->
    <rect x="338" y="160" width="14" height="14" rx="3" fill="#e2e8f0" opacity="0.9" />
    <rect x="420" y="235" width="14" height="14" rx="3" fill="#e2e8f0" opacity="0.9" />
    <rect x="620" y="212" width="14" height="14" rx="3" fill="#e2e8f0" opacity="0.9" />
    <rect x="720" y="285" width="14" height="14" rx="3" fill="#e2e8f0" opacity="0.9" />
    <rect x="905" y="205" width="14" height="14" rx="3" fill="#e2e8f0" opacity="0.9" />
  </g>

  <!-- Foreground card -->
  <g filter="url(#shadow)">
    <rect x="70" y="350" width="1060" height="220" rx="22" fill="#0b1222" opacity="0.86" stroke="#1e293b" stroke-width="2" />

    <text x="110" y="430" font-family="Arial, sans-serif" font-size="64" font-weight="700" fill="#ffffff">
      Rust OAuth2 Server
    </text>

    <text x="110" y="485" font-family="Arial, sans-serif" font-size="40" fill="#94a3b8">
      Actor-model concurrency for secure OAuth2/OIDC
    </text>

    <text x="1020" y="545" font-family="Arial, sans-serif" font-size="24" fill="#64748b" text-anchor="end">
      by Ian Lintner
    </text>
  </g>
</svg>
