<svg width="1200" height="630" viewBox="0 0 1200 630" fill="none" xmlns="http://www.w3.org/2000/svg">
  <!-- Background -->
  <rect width="1200" height="630" fill="#0f172a"/>
  
  <!-- Grid Pattern -->
  <defs>
    <pattern id="grid" width="40" height="40" patternUnits="userSpaceOnUse">
      <path d="M 40 0 L 0 0 0 40" fill="none" stroke="#1e293b" stroke-width="1"/>
    </pattern>
  </defs>
  <rect width="1200" height="630" fill="url(#grid)" opacity="0.5"/>
  
  <!-- Gradient Overlay -->
  <defs>
    <linearGradient id="grad1" x1="0%" y1="0%" x2="100%" y2="100%">
      <stop offset="0%" style="stop-color:#3b82f6;stop-opacity:0.1" />
      <stop offset="100%" style="stop-color:#8b5cf6;stop-opacity:0.1" />
    </linearGradient>
  </defs>
  <rect width="1200" height="630" fill="url(#grad1)"/>
  
  <!-- TypeScript Logo Inspired Shape -->
  <rect x="80" y="120" width="120" height="120" rx="12" fill="#3178c6"/>
  <text x="140" y="200" font-family="Arial, sans-serif" font-size="72" font-weight="bold" fill="white" text-anchor="middle">TS</text>
  
  <!-- Algorithm Visualization Icons -->
  <!-- Binary Tree -->
  <circle cx="280" cy="180" r="15" fill="#8b5cf6" opacity="0.6"/>
  <circle cx="260" cy="220" r="12" fill="#8b5cf6" opacity="0.5"/>
  <circle cx="300" cy="220" r="12" fill="#8b5cf6" opacity="0.5"/>
  <line x1="280" y1="195" x2="260" y2="208" stroke="#8b5cf6" stroke-width="2" opacity="0.4"/>
  <line x1="280" y1="195" x2="300" y2="208" stroke="#8b5cf6" stroke-width="2" opacity="0.4"/>
  
  <!-- Array Visualization -->
  <rect x="340" y="165" width="30" height="50" rx="4" fill="#3b82f6" opacity="0.6"/>
  <rect x="375" y="165" width="30" height="50" rx="4" fill="#3b82f6" opacity="0.5"/>
  <rect x="410" y="165" width="30" height="50" rx="4" fill="#3b82f6" opacity="0.4"/>
  <rect x="445" y="165" width="30" height="50" rx="4" fill="#3b82f6" opacity="0.3"/>
  
  <!-- Graph Nodes -->
  <circle cx="530" cy="180" r="15" fill="#10b981" opacity="0.6"/>
  <circle cx="570" cy="180" r="15" fill="#10b981" opacity="0.5"/>
  <circle cx="550" cy="220" r="15" fill="#10b981" opacity="0.5"/>
  <line x1="530" y1="195" x2="550" y2="205" stroke="#10b981" stroke-width="2" opacity="0.4"/>
  <line x1="570" y1="195" x2="550" y2="205" stroke="#10b981" stroke-width="2" opacity="0.4"/>
  
  <!-- Title -->
  <text x="80" y="320" font-family="Arial, sans-serif" font-size="64" font-weight="bold" fill="white">
    TypeScript DSA
  </text>
  <text x="80" y="380" font-family="Arial, sans-serif" font-size="48" font-weight="600" fill="#94a3b8">
    Interactive Algorithms
  </text>
  <text x="80" y="430" font-family="Arial, sans-serif" font-size="48" font-weight="600" fill="#94a3b8">
    Workbook
  </text>
  
  <!-- Feature Badges -->
  <rect x="80" y="470" width="180" height="40" rx="20" fill="#3b82f6" opacity="0.2"/>
  <text x="170" y="497" font-family="Arial, sans-serif" font-size="20" font-weight="600" fill="#60a5fa" text-anchor="middle">
    50+ Algorithms
  </text>
  
  <rect x="280" y="470" width="160" height="40" rx="20" fill="#8b5cf6" opacity="0.2"/>
  <text x="360" y="497" font-family="Arial, sans-serif" font-size="20" font-weight="600" fill="#a78bfa" text-anchor="middle">
    Interactive
  </text>
  
  <rect x="460" y="470" width="180" height="40" rx="20" fill="#10b981" opacity="0.2"/>
  <text x="550" y="497" font-family="Arial, sans-serif" font-size="20" font-weight="600" fill="#34d399" text-anchor="middle">
    Static Web App
  </text>
  
  <!-- Author -->
  <text x="80" y="570" font-family="Arial, sans-serif" font-size="24" fill="#64748b">
    by Ian Lintner
  </text>
  
  <!-- Decorative Code Brackets -->
  <text x="1000" y="150" font-family="Monaco, Courier New, monospace" font-size="120" fill="#1e293b" opacity="0.3">
    {
  </text>
  <text x="1000" y="480" font-family="Monaco, Courier New, monospace" font-size="120" fill="#1e293b" opacity="0.3">
    }
  </text>
</svg>
